<svg xmlns="http://www.w3.org/2000/svg" viewBox="0 0 200 200" fill="none">
  <rect width="200" height="200" rx="24" fill="#fbf9f1"/>
  <!-- Crown -->
  <rect x="62" y="100" width="76" height="28" rx="4" fill="#705d00"/>
  <polygon points="62,100 75,72 88,100" fill="#705d00"/>
  <polygon points="100,100 100,68 112,100" fill="#705d00"/>
  <polygon points="138,100 125,72 112,100" fill="#705d00"/>
  <!-- Crown gems -->
  <circle cx="75" cy="100" r="5" fill="#0c6681"/>
  <circle cx="100" cy="100" r="5" fill="#0c6681"/>
  <circle cx="125" cy="100" r="5" fill="#0c6681"/>
  <!-- Magic wand -->
  <line x1="148" y1="160" x2="172" y2="60" stroke="#1b1c17" stroke-width="3" stroke-linecap="round"/>
  <!-- Wand star -->
  <polygon points="172,48 174,55 181,55 175,60 177,67 172,62 167,67 169,60 163,55 170,55" fill="#705d00"/>
  <!-- Sparkles -->
  <circle cx="155" cy="90" r="3" fill="#705d00"/>
  <circle cx="162" cy="110" r="2" fill="#705d00"/>
  <!-- Open book -->
  <rect x="38" y="145" width="38" height="30" rx="3" fill="#0c6681"/>
  <rect x="76" y="145" width="38" height="30" rx="3" fill="#0c6681"/>
  <line x1="76" y1="145" x2="76" y2="175" stroke="#fbf9f1" stroke-width="2" stroke-linecap="round"/>
  <!-- Book pages lines -->
  <line x1="46" y1="154" x2="68" y2="154" stroke="#fbf9f1" stroke-width="1.5" stroke-linecap="round"/>
  <line x1="46" y1="161" x2="68" y2="161" stroke="#fbf9f1" stroke-width="1.5" stroke-linecap="round"/>
  <line x1="84" y1="154" x2="106" y2="154" stroke="#fbf9f1" stroke-width="1.5" stroke-linecap="round"/>
  <line x1="84" y1="161" x2="106" y2="161" stroke="#fbf9f1" stroke-width="1.5" stroke-linecap="round"/>
</svg>
