<svg xmlns="http://www.w3.org/2000/svg" viewBox="0 0 200 200" fill="none">
  <rect width="200" height="200" rx="24" fill="#1b1c17"/>
  <!-- Crescent moon -->
  <circle cx="75" cy="80" r="38" fill="#705d00"/>
  <circle cx="88" cy="68" r="32" fill="#1b1c17"/>
  <!-- Ringed planet -->
  <circle cx="145" cy="130" r="28" fill="#0c6681"/>
  <ellipse cx="145" cy="130" rx="46" ry="12" stroke="#705d00" stroke-width="3" stroke-linecap="round"/>
  <!-- Stars -->
  <polygon points="50,145 52,152 59,152 53,157 55,164 50,159 45,164 47,157 41,152 48,152" fill="#fbf9f1"/>
  <polygon points="165,55 167,61 173,61 168,65 170,71 165,67 160,71 162,65 157,61 163,61" fill="#fbf9f1"/>
  <circle cx="145" cy="55" r="4" fill="#fbf9f1"/>
  <circle cx="40" cy="100" r="3" fill="#fbf9f1"/>
  <circle cx="170" cy="100" r="3" fill="#fbf9f1"/>
</svg>
